<svg width="16" height="15" viewBox="0 0 16 15" fill="none" xmlns="http://www.w3.org/2000/svg">
  <rect width="16" height="15" rx="2" fill="white" />
  <g clip-path="url(#clip0)">
    <path d="M7.43406 7.79833L4.09379 11.2145C3.93269 11.3793 3.67151 11.3793 3.51043 11.2145L3.12082 10.8161C2.96 10.6516 2.95969 10.385 3.12013 10.2202L5.76739 7.50001L3.12015 4.77989C2.9597 4.61502 2.96001 4.34845 3.12084 4.18397L3.51043 3.78553C3.67152 3.62077 3.93271 3.62077 4.09379 3.78553L7.43406 7.20171C7.59516 7.36645 7.59516 7.63357 7.43406 7.79833ZM14 11.0156V10.4531C14 10.2201 13.8153 10.0313 13.5875 10.0313H8.36251C8.13469 10.0313 7.95001 10.2201 7.95001 10.4531V11.0156C7.95001 11.2486 8.13469 11.4375 8.36251 11.4375H13.5875C13.8153 11.4375 14 11.2486 14 11.0156Z" fill="black" />
  </g>
  <defs>
    <clipPath id="clip0">
      <rect width="11" height="9" fill="white" transform="translate(3 3)" />
    </clipPath>
  </defs>
</svg>
  